<svg xmlns="http://www.w3.org/2000/svg" viewBox="0 0 1200 520" role="img" aria-label="Roasted peanut kernels spread in a single layer on a baking sheet"><defs><linearGradient id="bg" x1="0" y1="0" x2="0" y2="1"><stop offset="0" stop-color="#fbf3e4"/><stop offset="1" stop-color="#f3e3c6"/></linearGradient><linearGradient id="tray" x1="0" y1="0" x2="0" y2="1"><stop offset="0" stop-color="#cfd3d8"/><stop offset="1" stop-color="#a9aeb5"/></linearGradient><g id="k">
    <path fill="currentColor" d="M -17 0 C -17 -9 -9 -11 0 -11 C 10 -11 17 -7 17 0 C 17 8 9 11 0 11 C -9 11 -17 8 -17 0 Z"/>
    <path d="M -14 1 C -6 3 6 3 14 1" fill="none" stroke="#000" stroke-opacity=".16" stroke-width="1" stroke-linecap="round"/>
    <ellipse cx="-3" cy="-6" rx="9" ry="2.2" fill="#fff" opacity=".3"/>
    <ellipse cx="2" cy="7" rx="7" ry="1.6" fill="#000" opacity=".1"/>
  </g></defs><rect width="1200" height="520" fill="url(#bg)"/>
<rect x="120" y="70" width="960" height="400" rx="26" fill="#000" opacity=".12" transform="translate(0 10)"/>
<rect x="120" y="70" width="960" height="400" rx="26" fill="url(#tray)"/>
<rect x="146" y="96" width="908" height="348" rx="14" fill="#dcdfe3" stroke="#9aa0a7" stroke-width="2"/>
<use href="#k" color="#b87333" transform="translate(197.5 150.1) rotate(27) scale(1.45)"/>
<use href="#k" color="#bf7a35" transform="translate(266.0 149.3) rotate(15) scale(1.45)"/>
<use href="#k" color="#a8642a" transform="translate(319.1 149.2) rotate(-15) scale(1.45)"/>
<use href="#k" color="#b87333" transform="translate(378.9 153.9) rotate(59) scale(1.45)"/>
<use href="#k" color="#b87333" transform="translate(452.4 156.8) rotate(15) scale(1.45)"/>
<use href="#k" color="#b87333" transform="translate(508.8 153.6) rotate(86) scale(1.45)"/>
<use href="#k" color="#bf7a35" transform="translate(570.0 149.9) rotate(-15) scale(1.45)"/>
<use href="#k" color="#a8642a" transform="translate(625.4 152.3) rotate(57) scale(1.45)"/>
<use href="#k" color="#b87333" transform="translate(686.8 156.0) rotate(-56) scale(1.45)"/>
<use href="#k" color="#a8642a" transform="translate(754.5 148.9) rotate(-79) scale(1.45)"/>
<use href="#k" color="#9a5a24" transform="translate(815.3 155.4) rotate(50) scale(1.45)"/>
<use href="#k" color="#a8642a" transform="translate(878.1 154.3) rotate(-36) scale(1.45)"/>
<use href="#k" color="#bf7a35" transform="translate(941.2 151.4) rotate(13) scale(1.45)"/>
<use href="#k" color="#bf7a35" transform="translate(999.9 152.8) rotate(-9) scale(1.45)"/>
<use href="#k" color="#c4833c" transform="translate(231.7 208.4) rotate(-15) scale(1.45)"/>
<use href="#k" color="#b87333" transform="translate(281.7 213.6) rotate(-83) scale(1.45)"/>
<use href="#k" color="#c4833c" transform="translate(351.8 214.8) rotate(68) scale(1.45)"/>
<use href="#k" color="#9a5a24" transform="translate(407.4 211.7) rotate(-1) scale(1.45)"/>
<use href="#k" color="#b87333" transform="translate(465.1 208.1) rotate(-41) scale(1.45)"/>
<use href="#k" color="#9a5a24" transform="translate(526.5 216.6) rotate(26) scale(1.45)"/>
<use href="#k" color="#b87333" transform="translate(591.2 212.2) rotate(30) scale(1.45)"/>
<use href="#k" color="#9a5a24" transform="translate(661.9 211.7) rotate(20) scale(1.45)"/>
<use href="#k" color="#a8642a" transform="translate(711.1 217.5) rotate(-67) scale(1.45)"/>
<use href="#k" color="#a8642a" transform="translate(777.4 219.6) rotate(-1) scale(1.45)"/>
<use href="#k" color="#9a5a24" transform="translate(839.7 214.4) rotate(69) scale(1.45)"/>
<use href="#k" color="#c4833c" transform="translate(907.0 210.6) rotate(-15) scale(1.45)"/>
<use href="#k" color="#b87333" transform="translate(966.0 212.1) rotate(-48) scale(1.45)"/>
<use href="#k" color="#c4833c" transform="translate(196.3 272.3) rotate(16) scale(1.45)"/>
<use href="#k" color="#bf7a35" transform="translate(258.5 267.5) rotate(6) scale(1.45)"/>
<use href="#k" color="#bf7a35" transform="translate(324.0 278.8) rotate(34) scale(1.45)"/>
<use href="#k" color="#9a5a24" transform="translate(390.9 274.7) rotate(43) scale(1.45)"/>
<use href="#k" color="#bf7a35" transform="translate(451.7 276.4) rotate(67) scale(1.45)"/>
<use href="#k" color="#9a5a24" transform="translate(506.2 271.1) rotate(-71) scale(1.45)"/>
<use href="#k" color="#a8642a" transform="translate(563.1 266.4) rotate(-52) scale(1.45)"/>
<use href="#k" color="#bf7a35" transform="translate(625.3 273.9) rotate(-72) scale(1.45)"/>
<use href="#k" color="#b87333" transform="translate(687.4 266.9) rotate(-25) scale(1.45)"/>
<use href="#k" color="#c4833c" transform="translate(747.8 268.4) rotate(-22) scale(1.45)"/>
<use href="#k" color="#b87333" transform="translate(821.8 273.9) rotate(-5) scale(1.45)"/>
<use href="#k" color="#9a5a24" transform="translate(881.8 279.4) rotate(-6) scale(1.45)"/>
<use href="#k" color="#c4833c" transform="translate(935.8 267.5) rotate(45) scale(1.45)"/>
<use href="#k" color="#a8642a" transform="translate(999.7 275.2) rotate(3) scale(1.45)"/>
<use href="#k" color="#bf7a35" transform="translate(231.3 331.6) rotate(-64) scale(1.45)"/>
<use href="#k" color="#b87333" transform="translate(292.3 334.9) rotate(-36) scale(1.45)"/>
<use href="#k" color="#a8642a" transform="translate(350.8 327.9) rotate(-24) scale(1.45)"/>
<use href="#k" color="#bf7a35" transform="translate(407.6 327.4) rotate(7) scale(1.45)"/>
<use href="#k" color="#a8642a" transform="translate(468.8 327.4) rotate(56) scale(1.45)"/>
<use href="#k" color="#a8642a" transform="translate(537.0 335.7) rotate(43) scale(1.45)"/>
<use href="#k" color="#b87333" transform="translate(590.0 331.1) rotate(42) scale(1.45)"/>
<use href="#k" color="#bf7a35" transform="translate(659.8 330.9) rotate(-55) scale(1.45)"/>
<use href="#k" color="#c4833c" transform="translate(723.7 330.5) rotate(79) scale(1.45)"/>
<use href="#k" color="#a8642a" transform="translate(785.2 329.4) rotate(-50) scale(1.45)"/>
<use href="#k" color="#bf7a35" transform="translate(840.0 329.0) rotate(-3) scale(1.45)"/>
<use href="#k" color="#b87333" transform="translate(906.7 331.0) rotate(28) scale(1.45)"/>
<use href="#k" color="#a8642a" transform="translate(968.1 325.9) rotate(-20) scale(1.45)"/>
<use href="#k" color="#9a5a24" transform="translate(204.0 387.7) rotate(54) scale(1.45)"/>
<use href="#k" color="#a8642a" transform="translate(261.0 393.4) rotate(-75) scale(1.45)"/>
<use href="#k" color="#9a5a24" transform="translate(318.5 384.8) rotate(-63) scale(1.45)"/>
<use href="#k" color="#9a5a24" transform="translate(388.9 385.0) rotate(59) scale(1.45)"/>
<use href="#k" color="#a8642a" transform="translate(448.4 387.9) rotate(9) scale(1.45)"/>
<use href="#k" color="#b87333" transform="translate(501.0 394.2) rotate(41) scale(1.45)"/>
<use href="#k" color="#a8642a" transform="translate(569.6 396.1) rotate(-12) scale(1.45)"/>
<use href="#k" color="#c4833c" transform="translate(635.3 386.0) rotate(-45) scale(1.45)"/>
<use href="#k" color="#bf7a35" transform="translate(692.3 393.7) rotate(-31) scale(1.45)"/>
<use href="#k" color="#c4833c" transform="translate(752.7 384.8) rotate(74) scale(1.45)"/>
<use href="#k" color="#bf7a35" transform="translate(821.0 392.3) rotate(57) scale(1.45)"/>
<use href="#k" color="#bf7a35" transform="translate(875.8 395.8) rotate(0) scale(1.45)"/>
<use href="#k" color="#a8642a" transform="translate(933.6 390.1) rotate(67) scale(1.45)"/>
<use href="#k" color="#a8642a" transform="translate(1001.5 393.9) rotate(-63) scale(1.45)"/></svg>